solid OpenSCAD_Model
  facet normal -1 0 0
    outer loop
      vertex 0 25.3 0
      vertex 0 23.8 1.59
      vertex 0 25.3 4.5
    endloop
  endfacet
  facet normal -1 0 0
    outer loop
      vertex 0 25.3 0
      vertex 0 4 1.59
      vertex 0 23.8 1.59
    endloop
  endfacet
  facet normal -1 0 0
    outer loop
      vertex 0 2.5 4.5
      vertex 0 4 1.59
      vertex 0 2.5 0
    endloop
  endfacet
  facet normal -1 0 0
    outer loop
      vertex 0 2.5 0
      vertex 0 4 1.59
      vertex 0 25.3 0
    endloop
  endfacet
  facet normal -1 0 0
    outer loop
      vertex 0 23.8 4.49
      vertex 0 25.3 4.5
      vertex 0 23.8 1.59
    endloop
  endfacet
  facet normal -1 0 0
    outer loop
      vertex 0 4 4.49
      vertex 0 25.3 4.5
      vertex 0 23.8 4.49
    endloop
  endfacet
  facet normal -1 0 0
    outer loop
      vertex 0 4 4.49
      vertex 0 2.5 4.5
      vertex 0 25.3 4.5
    endloop
  endfacet
  facet normal -1 0 0
    outer loop
      vertex 0 4 1.59
      vertex 0 2.5 4.5
      vertex 0 4 4.49
    endloop
  endfacet
  facet normal 0.760506 -0.649331 0
    outer loop
      vertex 55.0678 0.732232 4.5
      vertex 55.3225 1.03054 0
      vertex 55.3225 1.03054 4.5
    endloop
  endfacet
  facet normal 0.760506 -0.649331 0
    outer loop
      vertex 55.3225 1.03054 0
      vertex 55.0678 0.732232 4.5
      vertex 55.0678 0.732232 0
    endloop
  endfacet
  facet normal -0.996917 -0.0784577 0
    outer loop
      vertex 0.0307789 2.10891 0
      vertex 0 2.5 4.5
      vertex 0 2.5 0
    endloop
  endfacet
  facet normal -0.996917 -0.0784577 0
    outer loop
      vertex 0 2.5 4.5
      vertex 0.0307789 2.10891 0
      vertex 0.0307789 2.10891 4.5
    endloop
  endfacet
  facet normal 0.382624 -0.923904 0
    outer loop
      vertex 54.0725 0.122358 0
      vertex 54.435 0.272483 4.5
      vertex 54.0725 0.122358 4.5
    endloop
  endfacet
  facet normal 0.382624 -0.923904 0
    outer loop
      vertex 54.435 0.272483 4.5
      vertex 54.0725 0.122358 0
      vertex 54.435 0.272483 0
    endloop
  endfacet
  facet normal -0.522507 -0.852635 0
    outer loop
      vertex 1.03054 0.477457 0
      vertex 1.36502 0.272483 4.5
      vertex 1.03054 0.477457 4.5
    endloop
  endfacet
  facet normal -0.522507 -0.852635 -0
    outer loop
      vertex 1.36502 0.272483 4.5
      vertex 1.03054 0.477457 0
      vertex 1.36502 0.272483 0
    endloop
  endfacet
  facet normal -0.0784577 -0.996917 0
    outer loop
      vertex 2.10891 0.0307789 0
      vertex 2.5 0 4.5
      vertex 2.10891 0.0307789 4.5
    endloop
  endfacet
  facet normal -0.0784577 -0.996917 -0
    outer loop
      vertex 2.5 0 4.5
      vertex 2.10891 0.0307789 0
      vertex 2.5 0 0
    endloop
  endfacet
  facet normal -0.233448 -0.972369 0
    outer loop
      vertex 1.72746 0.122358 0
      vertex 2.10891 0.0307789 4.5
      vertex 1.72746 0.122358 4.5
    endloop
  endfacet
  facet normal -0.233448 -0.972369 -0
    outer loop
      vertex 2.10891 0.0307789 4.5
      vertex 1.72746 0.122358 0
      vertex 2.10891 0.0307789 0
    endloop
  endfacet
  facet normal 0 1 -0
    outer loop
      vertex 53.3 27.8 0
      vertex 2.5 27.8 4.5
      vertex 53.3 27.8 4.5
    endloop
  endfacet
  facet normal 0 1 0
    outer loop
      vertex 2.5 27.8 4.5
      vertex 53.3 27.8 0
      vertex 2.5 27.8 0
    endloop
  endfacet
  facet normal 0 -1 0
    outer loop
      vertex 2.5 0 0
      vertex 53.3 0 4.5
      vertex 2.5 0 4.5
    endloop
  endfacet
  facet normal 0 -1 -0
    outer loop
      vertex 53.3 0 4.5
      vertex 2.5 0 0
      vertex 53.3 0 0
    endloop
  endfacet
  facet normal -0.382623 0.923904 0
    outer loop
      vertex 1.72746 27.6776 0
      vertex 1.36502 27.5275 4.5
      vertex 1.72746 27.6776 4.5
    endloop
  endfacet
  facet normal -0.382623 0.923904 0
    outer loop
      vertex 1.36502 27.5275 4.5
      vertex 1.72746 27.6776 0
      vertex 1.36502 27.5275 0
    endloop
  endfacet
  facet normal 0.923904 -0.382623 0
    outer loop
      vertex 55.5275 1.36502 4.5
      vertex 55.6776 1.72746 0
      vertex 55.6776 1.72746 4.5
    endloop
  endfacet
  facet normal 0.923904 -0.382623 0
    outer loop
      vertex 55.6776 1.72746 0
      vertex 55.5275 1.36502 4.5
      vertex 55.5275 1.36502 0
    endloop
  endfacet
  facet normal 0.0784557 -0.996918 0
    outer loop
      vertex 53.3 0 0
      vertex 53.6911 0.0307789 4.5
      vertex 53.3 0 4.5
    endloop
  endfacet
  facet normal 0.0784557 -0.996918 0
    outer loop
      vertex 53.6911 0.0307789 4.5
      vertex 53.3 0 0
      vertex 53.6911 0.0307789 0
    endloop
  endfacet
  facet normal 0.760497 0.649342 0
    outer loop
      vertex 55.3225 26.7695 4.5
      vertex 55.0678 27.0678 0
      vertex 55.0678 27.0678 4.5
    endloop
  endfacet
  facet normal 0.760497 0.649342 0
    outer loop
      vertex 55.0678 27.0678 0
      vertex 55.3225 26.7695 4.5
      vertex 55.3225 26.7695 0
    endloop
  endfacet
  facet normal 0.97235 0.233527 0
    outer loop
      vertex 55.7692 25.6911 4.5
      vertex 55.6776 26.0725 0
      vertex 55.6776 26.0725 4.5
    endloop
  endfacet
  facet normal 0.97235 0.233527 0
    outer loop
      vertex 55.6776 26.0725 0
      vertex 55.7692 25.6911 4.5
      vertex 55.7692 25.6911 0
    endloop
  endfacet
  facet normal -0.0785112 0.996913 0
    outer loop
      vertex 2.5 27.8 0
      vertex 2.10891 27.7692 4.5
      vertex 2.5 27.8 4.5
    endloop
  endfacet
  facet normal -0.0785112 0.996913 0
    outer loop
      vertex 2.10891 27.7692 4.5
      vertex 2.5 27.8 0
      vertex 2.10891 27.7692 0
    endloop
  endfacet
  facet normal -0 0 1
    outer loop
      vertex 51.4 23.4 1.6
      vertex 54 19.4 1.6
      vertex 54 26 1.6
    endloop
  endfacet
  facet normal 0 0 1
    outer loop
      vertex 53.79 19.4 1.6
      vertex 51.4 23.4 1.6
      vertex 53.79 8.4 1.6
    endloop
  endfacet
  facet normal 0 0 1
    outer loop
      vertex 54 19.4 1.6
      vertex 51.4 23.4 1.6
      vertex 53.79 19.4 1.6
    endloop
  endfacet
  facet normal 0 0 1
    outer loop
      vertex 54 26 1.6
      vertex 20.4 23.4 1.6
      vertex 51.4 23.4 1.6
    endloop
  endfacet
  facet normal 0 0 1
    outer loop
      vertex 20.4 23.4 1.6
      vertex 2.01 23.8 1.6
      vertex 20.4 4.4 1.6
    endloop
  endfacet
  facet normal -0 0 1
    outer loop
      vertex 1.8 26 1.6
      vertex 20.4 23.4 1.6
      vertex 54 26 1.6
    endloop
  endfacet
  facet normal 0 0 1
    outer loop
      vertex 20.4 23.4 1.6
      vertex 1.8 26 1.6
      vertex 2.01 23.8 1.6
    endloop
  endfacet
  facet normal 0 0 1
    outer loop
      vertex 2.01 23.8 1.6
      vertex 1.8 26 1.6
      vertex 1.8 23.8 1.6
    endloop
  endfacet
  facet normal 0 0 1
    outer loop
      vertex 51.4 4.4 1.6
      vertex 54 8.4 1.6
      vertex 53.79 8.4 1.6
    endloop
  endfacet
  facet normal 0 0 1
    outer loop
      vertex 51.4 4.4 1.6
      vertex 53.79 8.4 1.6
      vertex 51.4 23.4 1.6
    endloop
  endfacet
  facet normal 0 0 1
    outer loop
      vertex 54 8.4 1.6
      vertex 51.4 4.4 1.6
      vertex 54 1.8 1.6
    endloop
  endfacet
  facet normal -0 0 1
    outer loop
      vertex 20.4 4.4 1.6
      vertex 54 1.8 1.6
      vertex 51.4 4.4 1.6
    endloop
  endfacet
  facet normal 0 0 1
    outer loop
      vertex 2.01 4 1.6
      vertex 20.4 4.4 1.6
      vertex 2.01 23.8 1.6
    endloop
  endfacet
  facet normal 0 0 1
    outer loop
      vertex 1.8 1.8 1.6
      vertex 20.4 4.4 1.6
      vertex 2.01 4 1.6
    endloop
  endfacet
  facet normal 0 0 1
    outer loop
      vertex 1.8 1.8 1.6
      vertex 2.01 4 1.6
      vertex 1.8 4 1.6
    endloop
  endfacet
  facet normal 0 0 1
    outer loop
      vertex 20.4 4.4 1.6
      vertex 1.8 1.8 1.6
      vertex 54 1.8 1.6
    endloop
  endfacet
  facet normal 1 0 0
    outer loop
      vertex 55.8 19.4 1.59
      vertex 55.8 25.3 4.5
      vertex 55.8 19.4 4.49
    endloop
  endfacet
  facet normal 1 0 0
    outer loop
      vertex 55.8 25.3 4.5
      vertex 55.8 8.4 4.49
      vertex 55.8 19.4 4.49
    endloop
  endfacet
  facet normal 1 0 0
    outer loop
      vertex 55.8 8.4 4.49
      vertex 55.8 2.5 4.5
      vertex 55.8 8.4 1.59
    endloop
  endfacet
  facet normal 1 -0 0
    outer loop
      vertex 55.8 2.5 4.5
      vertex 55.8 8.4 4.49
      vertex 55.8 25.3 4.5
    endloop
  endfacet
  facet normal 1 0 0
    outer loop
      vertex 55.8 25.3 4.5
      vertex 55.8 19.4 1.59
      vertex 55.8 25.3 0
    endloop
  endfacet
  facet normal 1 -0 0
    outer loop
      vertex 55.8 8.4 1.59
      vertex 55.8 25.3 0
      vertex 55.8 19.4 1.59
    endloop
  endfacet
  facet normal 1 0 0
    outer loop
      vertex 55.8 8.4 1.59
      vertex 55.8 2.5 0
      vertex 55.8 25.3 0
    endloop
  endfacet
  facet normal 1 0 0
    outer loop
      vertex 55.8 2.5 0
      vertex 55.8 8.4 1.59
      vertex 55.8 2.5 4.5
    endloop
  endfacet
  facet normal 0.972357 -0.233498 0
    outer loop
      vertex 55.6776 1.72746 4.5
      vertex 55.7692 2.10891 0
      vertex 55.7692 2.10891 4.5
    endloop
  endfacet
  facet normal 0.972357 -0.233498 0
    outer loop
      vertex 55.7692 2.10891 0
      vertex 55.6776 1.72746 4.5
      vertex 55.6776 1.72746 0
    endloop
  endfacet
  facet normal 0.522484 -0.852649 0
    outer loop
      vertex 54.435 0.272483 0
      vertex 54.7695 0.477457 4.5
      vertex 54.435 0.272483 4.5
    endloop
  endfacet
  facet normal 0.522484 -0.852649 0
    outer loop
      vertex 54.7695 0.477457 4.5
      vertex 54.435 0.272483 0
      vertex 54.7695 0.477457 0
    endloop
  endfacet
  facet normal -0.972362 0.233477 0
    outer loop
      vertex 0.0307789 25.6911 0
      vertex 0.122358 26.0725 4.5
      vertex 0.122358 26.0725 0
    endloop
  endfacet
  facet normal -0.972362 0.233477 0
    outer loop
      vertex 0.122358 26.0725 4.5
      vertex 0.0307789 25.6911 0
      vertex 0.0307789 25.6911 4.5
    endloop
  endfacet
  facet normal 0.649342 0.760497 -0
    outer loop
      vertex 55.0678 27.0678 0
      vertex 54.7695 27.3225 4.5
      vertex 55.0678 27.0678 4.5
    endloop
  endfacet
  facet normal 0.649342 0.760497 0
    outer loop
      vertex 54.7695 27.3225 4.5
      vertex 55.0678 27.0678 0
      vertex 54.7695 27.3225 0
    endloop
  endfacet
  facet normal -0.852635 -0.522507 0
    outer loop
      vertex 0.477457 1.03054 0
      vertex 0.272483 1.36502 4.5
      vertex 0.272483 1.36502 0
    endloop
  endfacet
  facet normal -0.852635 -0.522507 0
    outer loop
      vertex 0.272483 1.36502 4.5
      vertex 0.477457 1.03054 0
      vertex 0.477457 1.03054 4.5
    endloop
  endfacet
  facet normal 0.996913 0.0785092 0
    outer loop
      vertex 55.8 25.3 4.5
      vertex 55.7692 25.6911 0
      vertex 55.7692 25.6911 4.5
    endloop
  endfacet
  facet normal 0.996913 0.0785092 0
    outer loop
      vertex 55.7692 25.6911 0
      vertex 55.8 25.3 4.5
      vertex 55.8 25.3 0
    endloop
  endfacet
  facet normal 0.233477 -0.972362 0
    outer loop
      vertex 53.6911 0.0307789 0
      vertex 54.0725 0.122358 4.5
      vertex 53.6911 0.0307789 4.5
    endloop
  endfacet
  facet normal 0.233477 -0.972362 0
    outer loop
      vertex 54.0725 0.122358 4.5
      vertex 53.6911 0.0307789 0
      vertex 54.0725 0.122358 0
    endloop
  endfacet
  facet normal 0.649452 -0.760403 0
    outer loop
      vertex 54.7695 0.477457 0
      vertex 55.0678 0.732232 4.5
      vertex 54.7695 0.477457 4.5
    endloop
  endfacet
  facet normal 0.649452 -0.760403 0
    outer loop
      vertex 55.0678 0.732232 4.5
      vertex 54.7695 0.477457 0
      vertex 55.0678 0.732232 0
    endloop
  endfacet
  facet normal 0 0 1
    outer loop
      vertex 54 26 4.5
      vertex 55.8 25.3 4.5
      vertex 55.7692 25.6911 4.5
    endloop
  endfacet
  facet normal 0 0 1
    outer loop
      vertex 55.8 25.3 4.5
      vertex 54 26 4.5
      vertex 55.8 2.5 4.5
    endloop
  endfacet
  facet normal -0 0 1
    outer loop
      vertex 54 26 4.5
      vertex 55.7692 25.6911 4.5
      vertex 55.6776 26.0725 4.5
    endloop
  endfacet
  facet normal 0 0 1
    outer loop
      vertex 54 1.8 4.5
      vertex 55.8 2.5 4.5
      vertex 54 26 4.5
    endloop
  endfacet
  facet normal 0 0 1
    outer loop
      vertex 54 26 4.5
      vertex 55.6776 26.0725 4.5
      vertex 55.5275 26.435 4.5
    endloop
  endfacet
  facet normal 0 0 1
    outer loop
      vertex 55.8 2.5 4.5
      vertex 54 1.8 4.5
      vertex 55.7692 2.10891 4.5
    endloop
  endfacet
  facet normal 0 0 1
    outer loop
      vertex 54 26 4.5
      vertex 55.5275 26.435 4.5
      vertex 55.3225 26.7695 4.5
    endloop
  endfacet
  facet normal 0 0 1
    outer loop
      vertex 55.7692 2.10891 4.5
      vertex 54 1.8 4.5
      vertex 55.6776 1.72746 4.5
    endloop
  endfacet
  facet normal 0 0 1
    outer loop
      vertex 54 26 4.5
      vertex 55.3225 26.7695 4.5
      vertex 55.0678 27.0678 4.5
    endloop
  endfacet
  facet normal 0 0 1
    outer loop
      vertex 55.6776 1.72746 4.5
      vertex 54 1.8 4.5
      vertex 55.5275 1.36502 4.5
    endloop
  endfacet
  facet normal 0 0 1
    outer loop
      vertex 54 26 4.5
      vertex 55.0678 27.0678 4.5
      vertex 54.7695 27.3225 4.5
    endloop
  endfacet
  facet normal 0 0 1
    outer loop
      vertex 55.5275 1.36502 4.5
      vertex 54 1.8 4.5
      vertex 55.3225 1.03054 4.5
    endloop
  endfacet
  facet normal 0 0 1
    outer loop
      vertex 54 26 4.5
      vertex 54.7695 27.3225 4.5
      vertex 54.435 27.5275 4.5
    endloop
  endfacet
  facet normal 0 0 1
    outer loop
      vertex 55.3225 1.03054 4.5
      vertex 54 1.8 4.5
      vertex 55.0678 0.732232 4.5
    endloop
  endfacet
  facet normal 0 0 1
    outer loop
      vertex 54 26 4.5
      vertex 54.435 27.5275 4.5
      vertex 54.0725 27.6776 4.5
    endloop
  endfacet
  facet normal 0 0 1
    outer loop
      vertex 55.0678 0.732232 4.5
      vertex 54 1.8 4.5
      vertex 54.7695 0.477457 4.5
    endloop
  endfacet
  facet normal 0 0 1
    outer loop
      vertex 54.7695 0.477457 4.5
      vertex 54 1.8 4.5
      vertex 54.435 0.272483 4.5
    endloop
  endfacet
  facet normal 0 0 1
    outer loop
      vertex 53.6911 27.7692 4.5
      vertex 54 26 4.5
      vertex 54.0725 27.6776 4.5
    endloop
  endfacet
  facet normal 0 0 1
    outer loop
      vertex 53.3 27.8 4.5
      vertex 54 26 4.5
      vertex 53.6911 27.7692 4.5
    endloop
  endfacet
  facet normal -0 0 1
    outer loop
      vertex 2.5 27.8 4.5
      vertex 54 26 4.5
      vertex 53.3 27.8 4.5
    endloop
  endfacet
  facet normal 0 0 1
    outer loop
      vertex 1.8 26 4.5
      vertex 2.5 27.8 4.5
      vertex 2.10891 27.7692 4.5
    endloop
  endfacet
  facet normal 0 0 1
    outer loop
      vertex 2.5 27.8 4.5
      vertex 1.8 26 4.5
      vertex 54 26 4.5
    endloop
  endfacet
  facet normal -0 0 1
    outer loop
      vertex 1.36502 27.5275 4.5
      vertex 1.8 26 4.5
      vertex 1.72746 27.6776 4.5
    endloop
  endfacet
  facet normal -0 0 1
    outer loop
      vertex 1.72746 27.6776 4.5
      vertex 1.8 26 4.5
      vertex 2.10891 27.7692 4.5
    endloop
  endfacet
  facet normal 0 0 1
    outer loop
      vertex 54.435 0.272483 4.5
      vertex 54 1.8 4.5
      vertex 54.0725 0.122358 4.5
    endloop
  endfacet
  facet normal 0 0 1
    outer loop
      vertex 54 1.8 4.5
      vertex 53.6911 0.0307789 4.5
      vertex 54.0725 0.122358 4.5
    endloop
  endfacet
  facet normal 0 0 1
    outer loop
      vertex 54 1.8 4.5
      vertex 53.3 0 4.5
      vertex 53.6911 0.0307789 4.5
    endloop
  endfacet
  facet normal 0 0 1
    outer loop
      vertex 54 1.8 4.5
      vertex 2.5 0 4.5
      vertex 53.3 0 4.5
    endloop
  endfacet
  facet normal -0 0 1
    outer loop
      vertex 1.8 1.8 4.5
      vertex 2.5 0 4.5
      vertex 54 1.8 4.5
    endloop
  endfacet
  facet normal 0 0 1
    outer loop
      vertex 2.5 0 4.5
      vertex 1.8 1.8 4.5
      vertex 2.10891 0.0307789 4.5
    endloop
  endfacet
  facet normal 0 0 1
    outer loop
      vertex 1.8 1.8 4.5
      vertex 1.72746 0.122358 4.5
      vertex 2.10891 0.0307789 4.5
    endloop
  endfacet
  facet normal 0 0 1
    outer loop
      vertex 1.8 26 4.5
      vertex 0 25.3 4.5
      vertex 1.8 1.8 4.5
    endloop
  endfacet
  facet normal -0 0 1
    outer loop
      vertex 1.03054 27.3225 4.5
      vertex 1.8 26 4.5
      vertex 1.36502 27.5275 4.5
    endloop
  endfacet
  facet normal -0 0 1
    outer loop
      vertex 0 2.5 4.5
      vertex 1.8 1.8 4.5
      vertex 0 25.3 4.5
    endloop
  endfacet
  facet normal -0 0 1
    outer loop
      vertex 0.732232 27.0678 4.5
      vertex 1.8 26 4.5
      vertex 1.03054 27.3225 4.5
    endloop
  endfacet
  facet normal -0 -0 1
    outer loop
      vertex 0.0307789 2.10891 4.5
      vertex 1.8 1.8 4.5
      vertex 0 2.5 4.5
    endloop
  endfacet
  facet normal -0 0 1
    outer loop
      vertex 0.477457 26.7695 4.5
      vertex 1.8 26 4.5
      vertex 0.732232 27.0678 4.5
    endloop
  endfacet
  facet normal 0 0 1
    outer loop
      vertex 1.8 1.8 4.5
      vertex 1.36502 0.272483 4.5
      vertex 1.72746 0.122358 4.5
    endloop
  endfacet
  facet normal -0 0 1
    outer loop
      vertex 0.272483 26.435 4.5
      vertex 1.8 26 4.5
      vertex 0.477457 26.7695 4.5
    endloop
  endfacet
  facet normal 0 0 1
    outer loop
      vertex 1.8 1.8 4.5
      vertex 1.03054 0.477457 4.5
      vertex 1.36502 0.272483 4.5
    endloop
  endfacet
  facet normal -0 0 1
    outer loop
      vertex 0.122358 26.0725 4.5
      vertex 1.8 26 4.5
      vertex 0.272483 26.435 4.5
    endloop
  endfacet
  facet normal 0 0 1
    outer loop
      vertex 1.8 1.8 4.5
      vertex 0.732232 0.732232 4.5
      vertex 1.03054 0.477457 4.5
    endloop
  endfacet
  facet normal 0 0 1
    outer loop
      vertex 0.0307789 25.6911 4.5
      vertex 1.8 26 4.5
      vertex 0.122358 26.0725 4.5
    endloop
  endfacet
  facet normal 0 0 1
    outer loop
      vertex 1.8 1.8 4.5
      vertex 0.477457 1.03054 4.5
      vertex 0.732232 0.732232 4.5
    endloop
  endfacet
  facet normal 0 0 1
    outer loop
      vertex 1.8 26 4.5
      vertex 0.0307789 25.6911 4.5
      vertex 0 25.3 4.5
    endloop
  endfacet
  facet normal 0 0 1
    outer loop
      vertex 1.8 1.8 4.5
      vertex 0.272483 1.36502 4.5
      vertex 0.477457 1.03054 4.5
    endloop
  endfacet
  facet normal 0 0 1
    outer loop
      vertex 1.8 1.8 4.5
      vertex 0.122358 1.72746 4.5
      vertex 0.272483 1.36502 4.5
    endloop
  endfacet
  facet normal 0 0 1
    outer loop
      vertex 1.8 1.8 4.5
      vertex 0.0307789 2.10891 4.5
      vertex 0.122358 1.72746 4.5
    endloop
  endfacet
  facet normal 0.852606 -0.522555 0
    outer loop
      vertex 55.3225 1.03054 4.5
      vertex 55.5275 1.36502 0
      vertex 55.5275 1.36502 4.5
    endloop
  endfacet
  facet normal 0.852606 -0.522555 0
    outer loop
      vertex 55.5275 1.36502 0
      vertex 55.3225 1.03054 4.5
      vertex 55.3225 1.03054 0
    endloop
  endfacet
  facet normal -0.760403 0.649452 0
    outer loop
      vertex 0.477457 26.7695 0
      vertex 0.732232 27.0678 4.5
      vertex 0.732232 27.0678 0
    endloop
  endfacet
  facet normal -0.760403 0.649452 0
    outer loop
      vertex 0.732232 27.0678 4.5
      vertex 0.477457 26.7695 0
      vertex 0.477457 26.7695 4.5
    endloop
  endfacet
  facet normal 0.923927 0.382569 0
    outer loop
      vertex 55.6776 26.0725 4.5
      vertex 55.5275 26.435 0
      vertex 55.5275 26.435 4.5
    endloop
  endfacet
  facet normal 0.923927 0.382569 0
    outer loop
      vertex 55.5275 26.435 0
      vertex 55.6776 26.0725 4.5
      vertex 55.6776 26.0725 0
    endloop
  endfacet
  facet normal 0.85262 0.522532 0
    outer loop
      vertex 55.5275 26.435 4.5
      vertex 55.3225 26.7695 0
      vertex 55.3225 26.7695 4.5
    endloop
  endfacet
  facet normal 0.85262 0.522532 0
    outer loop
      vertex 55.3225 26.7695 0
      vertex 55.5275 26.435 4.5
      vertex 55.5275 26.435 0
    endloop
  endfacet
  facet normal -0.382678 -0.923882 0
    outer loop
      vertex 1.36502 0.272483 0
      vertex 1.72746 0.122358 4.5
      vertex 1.36502 0.272483 4.5
    endloop
  endfacet
  facet normal -0.382678 -0.923882 -0
    outer loop
      vertex 1.72746 0.122358 4.5
      vertex 1.36502 0.272483 0
      vertex 1.72746 0.122358 0
    endloop
  endfacet
  facet normal 0.522532 0.85262 -0
    outer loop
      vertex 54.7695 27.3225 0
      vertex 54.435 27.5275 4.5
      vertex 54.7695 27.3225 4.5
    endloop
  endfacet
  facet normal 0.522532 0.85262 0
    outer loop
      vertex 54.435 27.5275 4.5
      vertex 54.7695 27.3225 0
      vertex 54.435 27.5275 0
    endloop
  endfacet
  facet normal -0.233498 0.972357 0
    outer loop
      vertex 2.10891 27.7692 0
      vertex 1.72746 27.6776 4.5
      vertex 2.10891 27.7692 4.5
    endloop
  endfacet
  facet normal -0.233498 0.972357 0
    outer loop
      vertex 1.72746 27.6776 4.5
      vertex 2.10891 27.7692 0
      vertex 1.72746 27.6776 0
    endloop
  endfacet
  facet normal 0.996913 -0.0785112 0
    outer loop
      vertex 55.7692 2.10891 4.5
      vertex 55.8 2.5 0
      vertex 55.8 2.5 4.5
    endloop
  endfacet
  facet normal 0.996913 -0.0785112 0
    outer loop
      vertex 55.8 2.5 0
      vertex 55.7692 2.10891 4.5
      vertex 55.7692 2.10891 0
    endloop
  endfacet
  facet normal -0.760411 -0.649442 0
    outer loop
      vertex 0.732232 0.732232 0
      vertex 0.477457 1.03054 4.5
      vertex 0.477457 1.03054 0
    endloop
  endfacet
  facet normal -0.760411 -0.649442 0
    outer loop
      vertex 0.477457 1.03054 4.5
      vertex 0.732232 0.732232 0
      vertex 0.732232 0.732232 4.5
    endloop
  endfacet
  facet normal -0.649331 0.760506 0
    outer loop
      vertex 1.03054 27.3225 0
      vertex 0.732232 27.0678 4.5
      vertex 1.03054 27.3225 4.5
    endloop
  endfacet
  facet normal -0.649331 0.760506 0
    outer loop
      vertex 0.732232 27.0678 4.5
      vertex 1.03054 27.3225 0
      vertex 0.732232 27.0678 0
    endloop
  endfacet
  facet normal 0.382569 0.923927 -0
    outer loop
      vertex 54.435 27.5275 0
      vertex 54.0725 27.6776 4.5
      vertex 54.435 27.5275 4.5
    endloop
  endfacet
  facet normal 0.382569 0.923927 0
    outer loop
      vertex 54.0725 27.6776 4.5
      vertex 54.435 27.5275 0
      vertex 54.0725 27.6776 0
    endloop
  endfacet
  facet normal -0.996918 0.0784557 0
    outer loop
      vertex 0 25.3 0
      vertex 0.0307789 25.6911 4.5
      vertex 0.0307789 25.6911 0
    endloop
  endfacet
  facet normal -0.996918 0.0784557 0
    outer loop
      vertex 0.0307789 25.6911 4.5
      vertex 0 25.3 0
      vertex 0 25.3 4.5
    endloop
  endfacet
  facet normal -0.923882 -0.382678 0
    outer loop
      vertex 0.272483 1.36502 0
      vertex 0.122358 1.72746 4.5
      vertex 0.122358 1.72746 0
    endloop
  endfacet
  facet normal -0.923882 -0.382678 0
    outer loop
      vertex 0.122358 1.72746 4.5
      vertex 0.272483 1.36502 0
      vertex 0.272483 1.36502 4.5
    endloop
  endfacet
  facet normal 0.233527 0.97235 -0
    outer loop
      vertex 54.0725 27.6776 0
      vertex 53.6911 27.7692 4.5
      vertex 54.0725 27.6776 4.5
    endloop
  endfacet
  facet normal 0.233527 0.97235 0
    outer loop
      vertex 53.6911 27.7692 4.5
      vertex 54.0725 27.6776 0
      vertex 53.6911 27.7692 0
    endloop
  endfacet
  facet normal -0.522555 0.852606 0
    outer loop
      vertex 1.36502 27.5275 0
      vertex 1.03054 27.3225 4.5
      vertex 1.36502 27.5275 4.5
    endloop
  endfacet
  facet normal -0.522555 0.852606 0
    outer loop
      vertex 1.03054 27.3225 4.5
      vertex 1.36502 27.5275 0
      vertex 1.03054 27.3225 0
    endloop
  endfacet
  facet normal -0.649442 -0.760411 0
    outer loop
      vertex 0.732232 0.732232 0
      vertex 1.03054 0.477457 4.5
      vertex 0.732232 0.732232 4.5
    endloop
  endfacet
  facet normal -0.649442 -0.760411 -0
    outer loop
      vertex 1.03054 0.477457 4.5
      vertex 0.732232 0.732232 0
      vertex 1.03054 0.477457 0
    endloop
  endfacet
  facet normal -0.972369 -0.233448 0
    outer loop
      vertex 0.122358 1.72746 0
      vertex 0.0307789 2.10891 4.5
      vertex 0.0307789 2.10891 0
    endloop
  endfacet
  facet normal -0.972369 -0.233448 0
    outer loop
      vertex 0.0307789 2.10891 4.5
      vertex 0.122358 1.72746 0
      vertex 0.122358 1.72746 4.5
    endloop
  endfacet
  facet normal 0.0785092 0.996913 -0
    outer loop
      vertex 53.6911 27.7692 0
      vertex 53.3 27.8 4.5
      vertex 53.6911 27.7692 4.5
    endloop
  endfacet
  facet normal 0.0785092 0.996913 0
    outer loop
      vertex 53.3 27.8 4.5
      vertex 53.6911 27.7692 0
      vertex 53.3 27.8 0
    endloop
  endfacet
  facet normal -0.923904 0.382624 0
    outer loop
      vertex 0.122358 26.0725 0
      vertex 0.272483 26.435 4.5
      vertex 0.272483 26.435 0
    endloop
  endfacet
  facet normal -0.923904 0.382624 0
    outer loop
      vertex 0.272483 26.435 4.5
      vertex 0.122358 26.0725 0
      vertex 0.122358 26.0725 4.5
    endloop
  endfacet
  facet normal -0.852649 0.522484 0
    outer loop
      vertex 0.272483 26.435 0
      vertex 0.477457 26.7695 4.5
      vertex 0.477457 26.7695 0
    endloop
  endfacet
  facet normal -0.852649 0.522484 0
    outer loop
      vertex 0.477457 26.7695 4.5
      vertex 0.272483 26.435 0
      vertex 0.272483 26.435 4.5
    endloop
  endfacet
  facet normal -1 0 0
    outer loop
      vertex 54 8.4 1.6
      vertex 54 1.8 1.6
      vertex 54 8.4 4.49
    endloop
  endfacet
  facet normal -1 0 0
    outer loop
      vertex 54 19.4 1.6
      vertex 54 26 4.5
      vertex 54 26 1.6
    endloop
  endfacet
  facet normal -1 0 0
    outer loop
      vertex 54 19.4 4.49
      vertex 54 26 4.5
      vertex 54 19.4 1.6
    endloop
  endfacet
  facet normal -1 0 0
    outer loop
      vertex 54 8.4 4.49
      vertex 54 26 4.5
      vertex 54 19.4 4.49
    endloop
  endfacet
  facet normal -1 0 0
    outer loop
      vertex 54 8.4 4.49
      vertex 54 1.8 4.5
      vertex 54 26 4.5
    endloop
  endfacet
  facet normal -1 0 0
    outer loop
      vertex 54 1.8 4.5
      vertex 54 8.4 4.49
      vertex 54 1.8 1.6
    endloop
  endfacet
  facet normal 1 0 0
    outer loop
      vertex 1.8 26 4.5
      vertex 1.8 23.8 4.49
      vertex 1.8 26 1.6
    endloop
  endfacet
  facet normal 1 0 0
    outer loop
      vertex 1.8 26 4.5
      vertex 1.8 4 4.49
      vertex 1.8 23.8 4.49
    endloop
  endfacet
  facet normal 1 -0 0
    outer loop
      vertex 1.8 1.8 4.5
      vertex 1.8 4 4.49
      vertex 1.8 26 4.5
    endloop
  endfacet
  facet normal 1 0 0
    outer loop
      vertex 1.8 1.8 4.5
      vertex 1.8 4 1.6
      vertex 1.8 4 4.49
    endloop
  endfacet
  facet normal 1 0 0
    outer loop
      vertex 1.8 4 1.6
      vertex 1.8 1.8 4.5
      vertex 1.8 1.8 1.6
    endloop
  endfacet
  facet normal 1 0 0
    outer loop
      vertex 1.8 26 1.6
      vertex 1.8 23.8 4.49
      vertex 1.8 23.8 1.6
    endloop
  endfacet
  facet normal 0 -1 0
    outer loop
      vertex 1.8 26 1.6
      vertex 54 26 4.5
      vertex 1.8 26 4.5
    endloop
  endfacet
  facet normal 0 -1 -0
    outer loop
      vertex 54 26 4.5
      vertex 1.8 26 1.6
      vertex 54 26 1.6
    endloop
  endfacet
  facet normal 0 1 -0
    outer loop
      vertex 54 1.8 1.6
      vertex 1.8 1.8 4.5
      vertex 54 1.8 4.5
    endloop
  endfacet
  facet normal 0 1 0
    outer loop
      vertex 1.8 1.8 4.5
      vertex 54 1.8 1.6
      vertex 1.8 1.8 1.6
    endloop
  endfacet
  facet normal 0 0 -1
    outer loop
      vertex 51.4 4.4 0
      vertex 55.8 2.5 0
      vertex 55.7692 2.10891 0
    endloop
  endfacet
  facet normal 0 0 -1
    outer loop
      vertex 55.8 2.5 0
      vertex 51.4 4.4 0
      vertex 55.8 25.3 0
    endloop
  endfacet
  facet normal 0 0 -1
    outer loop
      vertex 51.4 4.4 0
      vertex 55.7692 2.10891 0
      vertex 55.6776 1.72746 0
    endloop
  endfacet
  facet normal 0 0 -1
    outer loop
      vertex 51.4 23.4 0
      vertex 55.8 25.3 0
      vertex 51.4 4.4 0
    endloop
  endfacet
  facet normal 0 0 -1
    outer loop
      vertex 51.4 4.4 0
      vertex 55.6776 1.72746 0
      vertex 55.5275 1.36502 0
    endloop
  endfacet
  facet normal -0 0 -1
    outer loop
      vertex 55.8 25.3 0
      vertex 51.4 23.4 0
      vertex 55.7692 25.6911 0
    endloop
  endfacet
  facet normal 0 0 -1
    outer loop
      vertex 51.4 4.4 0
      vertex 55.5275 1.36502 0
      vertex 55.3225 1.03054 0
    endloop
  endfacet
  facet normal -0 0 -1
    outer loop
      vertex 55.7692 25.6911 0
      vertex 51.4 23.4 0
      vertex 55.6776 26.0725 0
    endloop
  endfacet
  facet normal 0 0 -1
    outer loop
      vertex 51.4 4.4 0
      vertex 55.3225 1.03054 0
      vertex 55.0678 0.732232 0
    endloop
  endfacet
  facet normal -0 0 -1
    outer loop
      vertex 55.6776 26.0725 0
      vertex 51.4 23.4 0
      vertex 55.5275 26.435 0
    endloop
  endfacet
  facet normal 0 0 -1
    outer loop
      vertex 51.4 4.4 0
      vertex 55.0678 0.732232 0
      vertex 54.7695 0.477457 0
    endloop
  endfacet
  facet normal -0 0 -1
    outer loop
      vertex 55.5275 26.435 0
      vertex 51.4 23.4 0
      vertex 55.3225 26.7695 0
    endloop
  endfacet
  facet normal 0 0 -1
    outer loop
      vertex 51.4 4.4 0
      vertex 54.7695 0.477457 0
      vertex 54.435 0.272483 0
    endloop
  endfacet
  facet normal -0 0 -1
    outer loop
      vertex 55.3225 26.7695 0
      vertex 51.4 23.4 0
      vertex 55.0678 27.0678 0
    endloop
  endfacet
  facet normal 0 0 -1
    outer loop
      vertex 51.4 4.4 0
      vertex 54.435 0.272483 0
      vertex 54.0725 0.122358 0
    endloop
  endfacet
  facet normal -0 0 -1
    outer loop
      vertex 55.0678 27.0678 0
      vertex 51.4 23.4 0
      vertex 54.7695 27.3225 0
    endloop
  endfacet
  facet normal 0 0 -1
    outer loop
      vertex 51.4 4.4 0
      vertex 54.0725 0.122358 0
      vertex 53.6911 0.0307789 0
    endloop
  endfacet
  facet normal -0 0 -1
    outer loop
      vertex 54.7695 27.3225 0
      vertex 51.4 23.4 0
      vertex 54.435 27.5275 0
    endloop
  endfacet
  facet normal 0 0 -1
    outer loop
      vertex 51.4 4.4 0
      vertex 53.6911 0.0307789 0
      vertex 53.3 0 0
    endloop
  endfacet
  facet normal -0 0 -1
    outer loop
      vertex 54.435 27.5275 0
      vertex 51.4 23.4 0
      vertex 54.0725 27.6776 0
    endloop
  endfacet
  facet normal -0 0 -1
    outer loop
      vertex 54.0725 27.6776 0
      vertex 51.4 23.4 0
      vertex 53.6911 27.7692 0
    endloop
  endfacet
  facet normal 0 0 -1
    outer loop
      vertex 53.3 0 0
      vertex 20.4 4.4 0
      vertex 51.4 4.4 0
    endloop
  endfacet
  facet normal 0 0 -1
    outer loop
      vertex 0 2.5 0
      vertex 20.4 4.4 0
      vertex 2.5 0 0
    endloop
  endfacet
  facet normal 0 0 -1
    outer loop
      vertex 2.5 0 0
      vertex 20.4 4.4 0
      vertex 53.3 0 0
    endloop
  endfacet
  facet normal -0 0 -1
    outer loop
      vertex 53.6911 27.7692 0
      vertex 51.4 23.4 0
      vertex 53.3 27.8 0
    endloop
  endfacet
  facet normal 0 0 -1
    outer loop
      vertex 20.4 23.4 0
      vertex 53.3 27.8 0
      vertex 51.4 23.4 0
    endloop
  endfacet
  facet normal 0 0 -1
    outer loop
      vertex 20.4 23.4 0
      vertex 2.5 27.8 0
      vertex 53.3 27.8 0
    endloop
  endfacet
  facet normal -0 0 -1
    outer loop
      vertex 20.4 4.4 0
      vertex 0 2.5 0
      vertex 20.4 23.4 0
    endloop
  endfacet
  facet normal 0 0 -1
    outer loop
      vertex 0 2.5 0
      vertex 2.5 0 0
      vertex 2.10891 0.0307789 0
    endloop
  endfacet
  facet normal 0 0 -1
    outer loop
      vertex 0 25.3 0
      vertex 20.4 23.4 0
      vertex 0 2.5 0
    endloop
  endfacet
  facet normal 0 0 -1
    outer loop
      vertex 0 2.5 0
      vertex 2.10891 0.0307789 0
      vertex 1.72746 0.122358 0
    endloop
  endfacet
  facet normal 0 0 -1
    outer loop
      vertex 20.4 23.4 0
      vertex 0 25.3 0
      vertex 2.5 27.8 0
    endloop
  endfacet
  facet normal 0 0 -1
    outer loop
      vertex 0 2.5 0
      vertex 1.72746 0.122358 0
      vertex 1.36502 0.272483 0
    endloop
  endfacet
  facet normal 0 0 -1
    outer loop
      vertex 2.5 27.8 0
      vertex 0 25.3 0
      vertex 2.10891 27.7692 0
    endloop
  endfacet
  facet normal 0 0 -1
    outer loop
      vertex 0 2.5 0
      vertex 1.36502 0.272483 0
      vertex 1.03054 0.477457 0
    endloop
  endfacet
  facet normal 0 0 -1
    outer loop
      vertex 2.10891 27.7692 0
      vertex 0 25.3 0
      vertex 1.72746 27.6776 0
    endloop
  endfacet
  facet normal 0 0 -1
    outer loop
      vertex 0 2.5 0
      vertex 1.03054 0.477457 0
      vertex 0.732232 0.732232 0
    endloop
  endfacet
  facet normal 0 0 -1
    outer loop
      vertex 1.72746 27.6776 0
      vertex 0 25.3 0
      vertex 1.36502 27.5275 0
    endloop
  endfacet
  facet normal 0 0 -1
    outer loop
      vertex 0 2.5 0
      vertex 0.732232 0.732232 0
      vertex 0.477457 1.03054 0
    endloop
  endfacet
  facet normal 0 0 -1
    outer loop
      vertex 1.36502 27.5275 0
      vertex 0 25.3 0
      vertex 1.03054 27.3225 0
    endloop
  endfacet
  facet normal 0 0 -1
    outer loop
      vertex 0 2.5 0
      vertex 0.477457 1.03054 0
      vertex 0.272483 1.36502 0
    endloop
  endfacet
  facet normal 0 0 -1
    outer loop
      vertex 1.03054 27.3225 0
      vertex 0 25.3 0
      vertex 0.732232 27.0678 0
    endloop
  endfacet
  facet normal 0 0 -1
    outer loop
      vertex 0 2.5 0
      vertex 0.272483 1.36502 0
      vertex 0.122358 1.72746 0
    endloop
  endfacet
  facet normal 0 0 -1
    outer loop
      vertex 0.732232 27.0678 0
      vertex 0 25.3 0
      vertex 0.477457 26.7695 0
    endloop
  endfacet
  facet normal 0 0 -1
    outer loop
      vertex 0 2.5 0
      vertex 0.122358 1.72746 0
      vertex 0.0307789 2.10891 0
    endloop
  endfacet
  facet normal 0 0 -1
    outer loop
      vertex 0.477457 26.7695 0
      vertex 0 25.3 0
      vertex 0.272483 26.435 0
    endloop
  endfacet
  facet normal 0 0 -1
    outer loop
      vertex 0.272483 26.435 0
      vertex 0 25.3 0
      vertex 0.122358 26.0725 0
    endloop
  endfacet
  facet normal 0 0 -1
    outer loop
      vertex 0.122358 26.0725 0
      vertex 0 25.3 0
      vertex 0.0307789 25.6911 0
    endloop
  endfacet
  facet normal -1 0 0
    outer loop
      vertex 51.4 4.4 0
      vertex 51.4 23.4 1.6
      vertex 51.4 23.4 0
    endloop
  endfacet
  facet normal -1 -0 0
    outer loop
      vertex 51.4 23.4 1.6
      vertex 51.4 4.4 0
      vertex 51.4 4.4 1.6
    endloop
  endfacet
  facet normal 1 -0 0
    outer loop
      vertex 20.4 4.4 1.6
      vertex 20.4 23.4 0
      vertex 20.4 23.4 1.6
    endloop
  endfacet
  facet normal 1 0 0
    outer loop
      vertex 20.4 23.4 0
      vertex 20.4 4.4 1.6
      vertex 20.4 4.4 0
    endloop
  endfacet
  facet normal 0 -1 0
    outer loop
      vertex 20.4 23.4 0
      vertex 51.4 23.4 1.6
      vertex 20.4 23.4 1.6
    endloop
  endfacet
  facet normal 0 -1 -0
    outer loop
      vertex 51.4 23.4 1.6
      vertex 20.4 23.4 0
      vertex 51.4 23.4 0
    endloop
  endfacet
  facet normal 0 1 -0
    outer loop
      vertex 51.4 4.4 0
      vertex 20.4 4.4 1.6
      vertex 51.4 4.4 1.6
    endloop
  endfacet
  facet normal 0 1 0
    outer loop
      vertex 20.4 4.4 1.6
      vertex 51.4 4.4 0
      vertex 20.4 4.4 0
    endloop
  endfacet
  facet normal -1 0 0
    outer loop
      vertex 2.01 4 1.59
      vertex 2.01 23.8 1.6
      vertex 2.01 23.8 1.59
    endloop
  endfacet
  facet normal -1 -0 0
    outer loop
      vertex 2.01 23.8 1.6
      vertex 2.01 4 1.59
      vertex 2.01 4 1.6
    endloop
  endfacet
  facet normal 0 0 -1
    outer loop
      vertex 0 4 4.49
      vertex 1.8 23.8 4.49
      vertex 1.8 4 4.49
    endloop
  endfacet
  facet normal -0 0 -1
    outer loop
      vertex 1.8 23.8 4.49
      vertex 0 4 4.49
      vertex 0 23.8 4.49
    endloop
  endfacet
  facet normal -0 0 1
    outer loop
      vertex 0 23.8 1.59
      vertex 2.01 4 1.59
      vertex 2.01 23.8 1.59
    endloop
  endfacet
  facet normal 0 0 1
    outer loop
      vertex 2.01 4 1.59
      vertex 0 23.8 1.59
      vertex 0 4 1.59
    endloop
  endfacet
  facet normal 0 -1 0
    outer loop
      vertex 0 23.8 4.49
      vertex 1.8 23.8 1.6
      vertex 1.8 23.8 4.49
    endloop
  endfacet
  facet normal 0 -1 0
    outer loop
      vertex 0 23.8 1.59
      vertex 1.8 23.8 1.6
      vertex 0 23.8 4.49
    endloop
  endfacet
  facet normal 0 -1 0
    outer loop
      vertex 2.01 23.8 1.59
      vertex 1.8 23.8 1.6
      vertex 0 23.8 1.59
    endloop
  endfacet
  facet normal 0 -1 0
    outer loop
      vertex 1.8 23.8 1.6
      vertex 2.01 23.8 1.59
      vertex 2.01 23.8 1.6
    endloop
  endfacet
  facet normal 0 1 0
    outer loop
      vertex 2.01 4 1.6
      vertex 2.01 4 1.59
      vertex 1.8 4 1.6
    endloop
  endfacet
  facet normal 0 1 -0
    outer loop
      vertex 1.8 4 1.6
      vertex 0 4 4.49
      vertex 1.8 4 4.49
    endloop
  endfacet
  facet normal 0 1 0
    outer loop
      vertex 1.8 4 1.6
      vertex 0 4 1.59
      vertex 0 4 4.49
    endloop
  endfacet
  facet normal 0 1 0
    outer loop
      vertex 0 4 1.59
      vertex 1.8 4 1.6
      vertex 2.01 4 1.59
    endloop
  endfacet
  facet normal 0 0 -1
    outer loop
      vertex 54 8.4 4.49
      vertex 55.8 19.4 4.49
      vertex 55.8 8.4 4.49
    endloop
  endfacet
  facet normal -0 0 -1
    outer loop
      vertex 55.8 19.4 4.49
      vertex 54 8.4 4.49
      vertex 54 19.4 4.49
    endloop
  endfacet
  facet normal -0 0 1
    outer loop
      vertex 53.79 19.4 1.59
      vertex 55.8 8.4 1.59
      vertex 55.8 19.4 1.59
    endloop
  endfacet
  facet normal 0 0 1
    outer loop
      vertex 55.8 8.4 1.59
      vertex 53.79 19.4 1.59
      vertex 53.79 8.4 1.59
    endloop
  endfacet
  facet normal 1 -0 0
    outer loop
      vertex 53.79 8.4 1.6
      vertex 53.79 19.4 1.59
      vertex 53.79 19.4 1.6
    endloop
  endfacet
  facet normal 1 0 0
    outer loop
      vertex 53.79 19.4 1.59
      vertex 53.79 8.4 1.6
      vertex 53.79 8.4 1.59
    endloop
  endfacet
  facet normal 0 -1 0
    outer loop
      vertex 53.79 19.4 1.6
      vertex 53.79 19.4 1.59
      vertex 54 19.4 1.6
    endloop
  endfacet
  facet normal 0 -1 0
    outer loop
      vertex 54 19.4 1.6
      vertex 55.8 19.4 4.49
      vertex 54 19.4 4.49
    endloop
  endfacet
  facet normal 0 -1 0
    outer loop
      vertex 54 19.4 1.6
      vertex 55.8 19.4 1.59
      vertex 55.8 19.4 4.49
    endloop
  endfacet
  facet normal 0 -1 0
    outer loop
      vertex 55.8 19.4 1.59
      vertex 54 19.4 1.6
      vertex 53.79 19.4 1.59
    endloop
  endfacet
  facet normal 0 1 0
    outer loop
      vertex 55.8 8.4 4.49
      vertex 54 8.4 1.6
      vertex 54 8.4 4.49
    endloop
  endfacet
  facet normal 0 1 -0
    outer loop
      vertex 55.8 8.4 1.59
      vertex 54 8.4 1.6
      vertex 55.8 8.4 4.49
    endloop
  endfacet
  facet normal 0 1 0
    outer loop
      vertex 53.79 8.4 1.59
      vertex 54 8.4 1.6
      vertex 55.8 8.4 1.59
    endloop
  endfacet
  facet normal 0 1 0
    outer loop
      vertex 54 8.4 1.6
      vertex 53.79 8.4 1.59
      vertex 53.79 8.4 1.6
    endloop
  endfacet
endsolid OpenSCAD_Model
